<svg id="レイヤー_1" data-name="レイヤー 1" xmlns="http://www.w3.org/2000/svg" viewBox="0 0 580 100"><defs><style>.cls-1{fill:#fff;}</style></defs><title>shianbrown_logo</title><rect width="580" height="100"/><path class="cls-1" d="M50,56.57a9.67,9.67,0,0,0-.2,1.75A1.67,1.67,0,0,0,51.23,60a43.67,43.67,0,0,0,6.25.35c4.2,0,8.45-.1,9.7-.25,3.05-.35,4.25-1.4,4.25-3.65a1.85,1.85,0,0,0-1.2-1.9c-1-.35-1-.35-6.3-.4h-9.2c-4.55,0-7.35-.25-9-.75A4.93,4.93,0,0,1,42,48.27c0-3.85,1.55-8.7,3.45-10.8,2.75-3,7-3.85,20-3.85,10,0,12.4.2,14.85,1.15,2.05.8,3.1,2.45,3.1,5a16.56,16.56,0,0,1-.65,4.35H72.93a7.13,7.13,0,0,0,.15-1.15c0-1.8-1.2-2.15-7.05-2.15-4.15,0-8.6.15-10.2.3a3.31,3.31,0,0,0-3.3,3.4A1.81,1.81,0,0,0,53.28,46c.85.55.9.55,5,.65h9.45c.6,0,2.3,0,5,.15,3.7.15,4.9.3,6.35,1,2,.85,3,2.5,3,5.05,0,3.8-1.4,8.35-3.3,10.6-2.7,3.2-6.9,4-20.8,4-8.8,0-11.5-.15-14.1-.7-3.1-.7-4.5-2.3-4.5-5a18.67,18.67,0,0,1,.8-5.15Z"/><path class="cls-1" d="M92.23,33.87h10.15l-2.6,12.35h23.05l2.6-12.35h10.15l-7.05,33.35h-10.2l2.75-12.75H98L95.28,67.22H85.13Z"/><path class="cls-1" d="M144.28,33.87h10.15l-7.1,33.35H137.18Z"/><path class="cls-1" d="M177.88,33.87h13.6l11.15,33.35h-11.1l-2-5.95H168l-4.45,5.95H152Zm9.55,20.45L183,41l-10,13.3Z"/><path class="cls-1" d="M214.38,33.87h16.15l14.8,25.35,5.1-25.35H260L253,67.22h-16.3l-14.6-25.1L217,67.22h-9.75Z"/><path class="cls-1" d="M268.73,33.87h30.1c3.85,0,5.85.3,7.35,1.2a4.79,4.79,0,0,1,2.6,4.65,16,16,0,0,1-2.15,8c-1.1,1.5-2.25,2.1-4.9,2.6,3.45.35,5.1,2,5.1,5,0,3.55-1.45,7.25-3.65,9.25s-4.65,2.7-10.05,2.7h-31.5Zm22.55,26c2.4,0,2.9-.05,3.7-.5a4,4,0,0,0,1.7-3.35,1.89,1.89,0,0,0-1.2-2c-.55-.2-1-.25-3.2-.25h-17.9l-1.25,6.1Zm1.55-12.65c2.35,0,3.15-.15,3.9-.7a3.8,3.8,0,0,0,1.4-3,1.85,1.85,0,0,0-1.3-2,8.72,8.72,0,0,0-3-.25H277l-1.25,5.9Z"/><path class="cls-1" d="M318.68,33.87h28.75c8.85,0,11.35,1.45,11.35,6.55,0,4-1.1,8.5-2.55,10.75-1.3,1.95-2.65,2.75-5.65,3.4a11.76,11.76,0,0,1,2.65.5,2.56,2.56,0,0,1,1.7,2.5,23.1,23.1,0,0,1-.65,4.4l-1.15,5.25H342.88l.85-4.15a8.55,8.55,0,0,0,.25-1.8,2,2,0,0,0-1.4-2.15,11.87,11.87,0,0,0-3.5-.3h-15.6l-1.8,8.4h-10.1Zm22.4,16.8c3,0,4.1-.2,5.1-.85.8-.55,1.15-1.25,1.55-2.9a15.83,15.83,0,0,0,.35-2.55,2,2,0,0,0-1.5-2,9.37,9.37,0,0,0-3.3-.25H327l-1.85,8.6Z"/><path class="cls-1" d="M407.48,35.12c2.1,1.05,3.2,3.4,3.2,6.8,0,1.75-.35,4-1.65,10-1.25,5.65-2.3,8.45-4.15,10.7-2.5,3-5.8,4.4-11.25,4.75-2.1.1-6.45.2-10.9.2-11.65,0-14.35-.25-17.1-1.6-2.1-1-3.2-3.35-3.2-6.7,0-1.95.45-4.55,1.9-11.15,1.9-8.8,4.3-12,10.2-13.6,2.9-.8,6.15-1,14.65-1C402.63,33.52,404.58,33.67,407.48,35.12ZM376,44.42c-1.1,1.9-2.65,8.5-2.65,11.35,0,3.1,1.5,3.65,10.1,3.65,4.5,0,7.05-.05,8.8-.2,3.9-.35,5.35-1.85,6.55-6.7A39.88,39.88,0,0,0,400,45.17c0-3.15-1.15-3.5-11.4-3.5C379,41.67,377.33,42,376,44.42Z"/><path class="cls-1" d="M426.18,33.87l4.3,25.4,14-25.4h12.25l3,25.4,15.4-25.4h10.3l-20.9,33.35h-13.6l-2.25-24-12.9,24h-13.5l-6.35-33.35Z"/><path class="cls-1" d="M490.07,33.87h16.15L521,59.22l5.1-25.35h9.6l-7.05,33.35h-16.3l-14.6-25.1-5.05,25.1H483Z"/></svg>