<svg id="レイヤー_1" data-name="レイヤー 1" xmlns="http://www.w3.org/2000/svg" viewBox="0 0 100 580"><defs><style>.cls-1{fill:#fff;}</style></defs><title>shianbrown_logo</title><rect x="-240" y="240" width="580" height="100" transform="translate(340 240) rotate(90)"/><path class="cls-1" d="M43.43,50a9.67,9.67,0,0,0-1.75-.2A1.67,1.67,0,0,0,40,51.23a43.67,43.67,0,0,0-.35,6.25c0,4.2.1,8.45.25,9.7.35,3.05,1.4,4.25,3.65,4.25a1.85,1.85,0,0,0,1.9-1.2c.35-1,.35-1,.4-6.3v-9.2c0-4.55.25-7.35.75-9A4.93,4.93,0,0,1,51.73,42c3.85,0,8.7,1.55,10.8,3.45,3,2.75,3.85,7,3.85,20,0,10-.2,12.4-1.15,14.85-.8,2.05-2.45,3.1-5,3.1a16.56,16.56,0,0,1-4.35-.65V72.93a7.13,7.13,0,0,0,1.15.15c1.8,0,2.15-1.2,2.15-7.05,0-4.15-.15-8.6-.3-10.2a3.31,3.31,0,0,0-3.4-3.3,1.81,1.81,0,0,0-1.55.75c-.55.85-.55.9-.65,5v9.45c0,.6,0,2.3-.15,5-.15,3.7-.3,4.9-1,6.35-.85,2-2.5,3-5.05,3-3.8,0-8.35-1.4-10.6-3.3-3.2-2.7-4-6.9-4-20.8,0-8.8.15-11.5.7-14.1.7-3.1,2.3-4.5,5-4.5a18.67,18.67,0,0,1,5.15.8Z"/><path class="cls-1" d="M66.13,92.23v10.15l-12.35-2.6v23.05l12.35,2.6v10.15l-33.35-7.05v-10.2l12.75,2.75V98L32.78,95.28V85.13Z"/><path class="cls-1" d="M66.13,144.28v10.15l-33.35-7.1V137.18Z"/><path class="cls-1" d="M66.13,177.88v13.6L32.78,202.63v-11.1l5.95-2V168l-5.95-4.45V152Zm-20.45,9.55L59,183l-13.3-10Z"/><path class="cls-1" d="M66.13,214.38v16.15l-25.35,14.8,25.35,5.1V260L32.78,253v-16.3l25.1-14.6L32.78,217v-9.75Z"/><path class="cls-1" d="M66.13,268.73v30.1c0,3.85-.3,5.85-1.2,7.35a4.79,4.79,0,0,1-4.65,2.6,16,16,0,0,1-8-2.15c-1.5-1.1-2.1-2.25-2.6-4.9-.35,3.45-2,5.1-5,5.1-3.55,0-7.25-1.45-9.25-3.65s-2.7-4.65-2.7-10.05v-31.5Zm-26,22.55c0,2.4.05,2.9.5,3.7a4,4,0,0,0,3.35,1.7,1.89,1.89,0,0,0,2-1.2c.2-.55.25-1,.25-3.2v-17.9l-6.1-1.25Zm12.65,1.55c0,2.35.15,3.15.7,3.9a3.8,3.8,0,0,0,3,1.4,1.85,1.85,0,0,0,2-1.3,8.72,8.72,0,0,0,.25-3V277l-5.9-1.25Z"/><path class="cls-1" d="M66.13,318.68v28.75c0,8.85-1.45,11.35-6.55,11.35-4,0-8.5-1.1-10.75-2.55-1.95-1.3-2.75-2.65-3.4-5.65a11.76,11.76,0,0,1-.5,2.65,2.56,2.56,0,0,1-2.5,1.7,23.1,23.1,0,0,1-4.4-.65l-5.25-1.15V342.88l4.15.85a8.55,8.55,0,0,0,1.8.25,2,2,0,0,0,2.15-1.4,11.87,11.87,0,0,0,.3-3.5v-15.6l-8.4-1.8v-10.1Zm-16.8,22.4c0,3,.2,4.1.85,5.1.55.8,1.25,1.15,2.9,1.55a15.83,15.83,0,0,0,2.55.35,2,2,0,0,0,2-1.5,9.37,9.37,0,0,0,.25-3.3V327l-8.6-1.85Z"/><path class="cls-1" d="M64.88,407.48c-1.05,2.1-3.4,3.2-6.8,3.2-1.75,0-4-.35-10-1.65-5.65-1.25-8.45-2.3-10.7-4.15-3-2.5-4.4-5.8-4.75-11.25-.1-2.1-.2-6.45-.2-10.9,0-11.65.25-14.35,1.6-17.1,1-2.1,3.35-3.2,6.7-3.2,1.95,0,4.55.45,11.15,1.9,8.8,1.9,12,4.3,13.6,10.2.8,2.9,1,6.15,1,14.65C66.48,402.63,66.33,404.58,64.88,407.48ZM55.58,376c-1.9-1.1-8.5-2.65-11.35-2.65-3.1,0-3.65,1.5-3.65,10.1,0,4.5.05,7.05.2,8.8.35,3.9,1.85,5.35,6.7,6.55A39.88,39.88,0,0,0,54.83,400c3.15,0,3.5-1.15,3.5-11.4C58.33,379,58,377.33,55.58,376Z"/><path class="cls-1" d="M66.13,426.18l-25.4,4.3,25.4,14v12.25l-25.4,3,25.4,15.4v10.3l-33.35-20.9v-13.6l24-2.25-24-12.9v-13.5l33.35-6.35Z"/><path class="cls-1" d="M66.13,490.07v16.15L40.78,521l25.35,5.1v9.6l-33.35-7.05v-16.3l25.1-14.6-25.1-5.05V483Z"/></svg>